HIERARCHY
ROOT Hips
{
  OFFSET 5.80788e-005 67.184 3.4734
  CHANNELS 6 Xposition Yposition Zposition Zrotation Xrotation Yrotation
  JOINT Chest
  {
    OFFSET 0 8.7983 -4.7612
    CHANNELS 3 Zrotation Xrotation Yrotation
    JOINT Chest2
    {
      OFFSET 0 8.0291 0.4195
      CHANNELS 3 Zrotation Xrotation Yrotation
      JOINT Chest3
      {
        OFFSET 0 9.9351 -2.2114
        CHANNELS 3 Zrotation Xrotation Yrotation
        JOINT Neck
        {
          OFFSET 0 22.3885 -0.4656
          CHANNELS 3 Zrotation Xrotation Yrotation
          JOINT Head
          {
            OFFSET -0.0001 12.643 3.4389
            CHANNELS 3 Zrotation Xrotation Yrotation
            End Site
            {
              OFFSET 0.0001 17.6655 0.5274
            }
          }
        }
        JOINT LeftCollar
        {
          OFFSET 2.2603 21.606 7.4023
          CHANNELS 3 Zrotation Xrotation Yrotation
          JOINT LeftShoulder
          {
            OFFSET 13.5163 -1.1332 -5.0146
            CHANNELS 3 Zrotation Xrotation Yrotation
            JOINT LeftElbow
            {
              OFFSET -0.0995 -28.05 -0.2431
              CHANNELS 3 Zrotation Xrotation Yrotation
              JOINT LeftWrist
              {
                OFFSET 0.0679 -23.3996 -0.1402
                CHANNELS 3 Zrotation Xrotation Yrotation
                JOINT LeftFinger1
                {
                  OFFSET 0.7932 -9.069 2.5189
                  CHANNELS 3 Zrotation Xrotation Yrotation
                  JOINT LeftFinger11
                  {
                    OFFSET -0.8272 -3.3923 0.5977
                    CHANNELS 3 Zrotation Xrotation Yrotation
                    JOINT LeftFinger12
                    {
                      OFFSET -0.5649 -2.3158 0.4082
                      CHANNELS 3 Zrotation Xrotation Yrotation
                      End Site
                      {
                        OFFSET -0.4919 -1.6479 0.2673
                      }
                    }
                  }
                }
                JOINT LeftFinger2
                {
                  OFFSET 0.9159 -9.2044 0.2193
                  CHANNELS 3 Zrotation Xrotation Yrotation
                  JOINT LeftFinger21
                  {
                    OFFSET 0.0117 -4.1944 -0.0248
                    CHANNELS 3 Zrotation Xrotation Yrotation
                    JOINT LeftFinger22
                    {
                      OFFSET 0.0071 -2.3249 -0.0142
                      CHANNELS 3 Zrotation Xrotation Yrotation
                      End Site
                      {
                        OFFSET -0.1475 -2.0882 0.0028
                      }
                    }
                  }
                }
                JOINT LeftFinger3
                {
                  OFFSET 0.6113 -8.7231 -2.0637
                  CHANNELS 3 Zrotation Xrotation Yrotation
                  JOINT LeftFinger31
                  {
                    OFFSET -0.1927 -3.8059 -0.2383
                    CHANNELS 3 Zrotation Xrotation Yrotation
                    JOINT LeftFinger32
                    {
                      OFFSET -0.1091 -2.1688 -0.1362
                      CHANNELS 3 Zrotation Xrotation Yrotation
                      End Site
                      {
                        OFFSET -0.2358 -1.9176 -0.0906
                      }
                    }
                  }
                }
                JOINT LeftFinger4
                {
                  OFFSET -0.6151 -8.0947 -3.5641
                  CHANNELS 3 Zrotation Xrotation Yrotation
                  JOINT LeftFinger41
                  {
                    OFFSET -0.4882 -2.341 -0.6462
                    CHANNELS 3 Zrotation Xrotation Yrotation
                    JOINT LeftFinger42
                    {
                      OFFSET -0.3575 -1.7167 -0.4742
                      CHANNELS 3 Zrotation Xrotation Yrotation
                      End Site
                      {
                        OFFSET -0.4187 -1.5237 -0.3496
                      }
                    }
                  }
                }
                JOINT LeftFinger0
                {
                  OFFSET -1.42 -1.8761 1.4223
                  CHANNELS 3 Zrotation Xrotation Yrotation
                  JOINT LeftFinger01
                  {
                    OFFSET -1.1471 -3.4929 2.6334
                    CHANNELS 3 Zrotation Xrotation Yrotation
                    JOINT LeftFinger02
                    {
                      OFFSET -0.823 -2.3 1.6571
                      CHANNELS 3 Zrotation Xrotation Yrotation
                      End Site
                      {
                        OFFSET -0.5822 -1.6914 1.1582
                      }
                    }
                  }
                }
              }
            }
          }
        }
        JOINT RightCollar
        {
          OFFSET -2.2603 21.606 7.4023
          CHANNELS 3 Zrotation Xrotation Yrotation
          JOINT RightShoulder
          {
            OFFSET -13.5187 -1.1334 -5.0155
            CHANNELS 3 Zrotation Xrotation Yrotation
            JOINT RightElbow
            {
              OFFSET 0.0994 -28.0499 -0.2431
              CHANNELS 3 Zrotation Xrotation Yrotation
              JOINT RightWrist
              {
                OFFSET -0.0679 -23.3996 -0.1402
                CHANNELS 3 Zrotation Xrotation Yrotation
                JOINT RightFinger1
                {
                  OFFSET -0.7932 -9.0691 2.5189
                  CHANNELS 3 Zrotation Xrotation Yrotation
                  JOINT RightFinger11
                  {
                    OFFSET 0.8272 -3.3923 0.5977
                    CHANNELS 3 Zrotation Xrotation Yrotation
                    JOINT RightFinger12
                    {
                      OFFSET 0.565 -2.3158 0.4082
                      CHANNELS 3 Zrotation Xrotation Yrotation
                      End Site
                      {
                        OFFSET 0.4919 -1.6479 0.2673
                      }
                    }
                  }
                }
                JOINT RightFinger2
                {
                  OFFSET -0.916 -9.2044 0.2193
                  CHANNELS 3 Zrotation Xrotation Yrotation
                  JOINT RightFinger21
                  {
                    OFFSET -0.0117 -4.1944 -0.0248
                    CHANNELS 3 Zrotation Xrotation Yrotation
                    JOINT RightFinger22
                    {
                      OFFSET -0.0071 -2.3249 -0.0142
                      CHANNELS 3 Zrotation Xrotation Yrotation
                      End Site
                      {
                        OFFSET 0.1475 -2.0882 0.0028
                      }
                    }
                  }
                }
                JOINT RightFinger3
                {
                  OFFSET -0.6113 -8.7231 -2.0637
                  CHANNELS 3 Zrotation Xrotation Yrotation
                  JOINT RightFinger31
                  {
                    OFFSET 0.1927 -3.8059 -0.2383
                    CHANNELS 3 Zrotation Xrotation Yrotation
                    JOINT RightFinger32
                    {
                      OFFSET 0.1091 -2.1688 -0.1362
                      CHANNELS 3 Zrotation Xrotation Yrotation
                      End Site
                      {
                        OFFSET 0.2358 -1.9176 -0.0906
                      }
                    }
                  }
                }
                JOINT RightFinger4
                {
                  OFFSET 0.6151 -8.0947 -3.564
                  CHANNELS 3 Zrotation Xrotation Yrotation
                  JOINT RightFinger41
                  {
                    OFFSET 0.4882 -2.341 -0.6462
                    CHANNELS 3 Zrotation Xrotation Yrotation
                    JOINT RightFinger42
                    {
                      OFFSET 0.3574 -1.7166 -0.4742
                      CHANNELS 3 Zrotation Xrotation Yrotation
                      End Site
                      {
                        OFFSET 0.4187 -1.5237 -0.3496
                      }
                    }
                  }
                }
                JOINT RightFinger0
                {
                  OFFSET 1.4199 -1.8761 1.4221
                  CHANNELS 3 Zrotation Xrotation Yrotation
                  JOINT RightFinger01
                  {
                    OFFSET 1.1472 -3.4929 2.6336
                    CHANNELS 3 Zrotation Xrotation Yrotation
                    JOINT RightFinger02
                    {
                      OFFSET 0.8229 -2.3 1.6571
                      CHANNELS 3 Zrotation Xrotation Yrotation
                      End Site
                      {
                        OFFSET 0.5822 -1.6914 1.1582
                      }
                    }
                  }
                }
              }
            }
          }
        }
      }
    }
  }
  JOINT RightHip
  {
    OFFSET -9.412 3.9771 -0.7758
    CHANNELS 3 Zrotation Xrotation Yrotation
    JOINT RightKnee
    {
      OFFSET -0.7531 -40.938 0
      CHANNELS 3 Zrotation Xrotation Yrotation
      JOINT RightAnkle
      {
        OFFSET 0 -40.1986 0
        CHANNELS 3 Zrotation Xrotation Yrotation
        JOINT RightToe
        {
          OFFSET 0 -4.4182 9.239
          CHANNELS 3 Zrotation Xrotation Yrotation
          End Site
          {
            OFFSET 0 0 6.1981
          }
        }
      }
    }
  }
  JOINT LeftHip
  {
    OFFSET 9.4119 3.9773 -0.7758
    CHANNELS 3 Zrotation Xrotation Yrotation
    JOINT LeftKnee
    {
      OFFSET 0.7532 -40.9383 0
      CHANNELS 3 Zrotation Xrotation Yrotation
      JOINT LeftAnkle
      {
        OFFSET 0 -40.1986 0
        CHANNELS 3 Zrotation Xrotation Yrotation
        JOINT LeftToe
        {
          OFFSET 0 -4.4182 9.239
          CHANNELS 3 Zrotation Xrotation Yrotation
          End Site
          {
            OFFSET 0 0 6.1981
          }
        }
      }
    }
  }
}
MOTION
Frames:	6
Frame Time:	0.0333333
5.80788e-005 67.184 3.4734 0 0 -0 0 0 -0 0 0 -0 0 0 -0 0 0 -0 0 0 -0 0 0 -12.5014 88.1196 14.2451 10.6914 -0.00160068 -0.00239207 0.000740045 -8.4365e-005 7.00714e-005 -9.52055e-007 9.93923e-017 -1.98785e-016 -1.59028e-015 9.93923e-017 -5.96354e-016 -1.59028e-015 -9.93923e-017 -5.96354e-016 -1.59028e-015 9.93923e-017 -1.98785e-016 -1.59028e-015 -0.0128176 0.00232552 8.52707e-005 9.93923e-017 5.96354e-016 -0 9.93923e-017 -1.98785e-016 -1.59028e-015 -0.0160551 0.00299681 0.000857156 -2.48481e-016 0 3.18055e-015 9.93923e-017 -1.98785e-016 -1.59028e-015 -0.0125865 0.0031206 0.00282719 0 1.98785e-016 -0 9.93923e-017 -1.98785e-016 -1.59028e-015 9.93923e-017 -5.96354e-016 -1.59028e-015 -9.93923e-017 -5.96354e-016 -1.59028e-015 -0.865644 0.16582 7.03859 -88.0329 10.2057 -10.5567 0.0015593 -0.00248883 -0.000788628 7.87605e-005 4.10553e-005 1.24965e-005 -3.97569e-016 -7.95139e-016 3.18055e-015 -1.98785e-016 -3.97569e-016 3.18055e-015 -1.98785e-016 0 3.18055e-015 -3.97569e-016 -7.95139e-016 3.18055e-015 0.0129473 0.00231697 -8.70038e-005 9.93923e-017 -7.95139e-016 1.59028e-015 -3.97569e-016 -7.95139e-016 3.18055e-015 0.0163314 0.00303369 -0.000872333 3.97569e-016 7.95139e-016 -3.18055e-015 -3.97569e-016 -7.95139e-016 3.18055e-015 0.0145763 0.00367772 -0.00326275 9.93923e-017 -3.97569e-016 -0 -3.97569e-016 -7.95139e-016 3.18055e-015 -1.98785e-016 -3.97569e-016 3.18055e-015 -1.98785e-016 0 3.18055e-015 3.42485 1.36937 -0.0640303 0.000136572 0.69354 0.00145564 -3.42573 -2.06297 -0.0607933 -3.19502e-024 0 -1.48106e-024 -3.42498 1.36123 0.0639712 -6.769e-005 0.712612 -0.0012277 3.42582 -2.07388 0.0612819 2.55305e-023 0 -2.31416e-026 
7.19191e-005 -1.27252 10.3007 1.0574e-006 -88.0745 1.04227e-006 -0.0200938 -3.32596 -0.164461 -0.0498959 -6.65188 -0.330932 -0.049896 -6.65188 -0.330933 -4.75068e-007 19.3316 2.3557e-006 -0.00119354 9.68331 -0.0362633 -17.0373 15.3827 -8.23274 36.4545 -48.5411 37.5605 -14.6423 2.82624 -37.9169 -47.9799 15.6215 27.1677 -3.18055e-015 7.71426e-008 -9.54166e-015 7.35612e-007 -3.71885e-006 5.7487e-006 -4.56641e-006 -5.10835e-006 -2.27184e-006 -3.18055e-015 7.71426e-008 -9.54166e-015 -0.0127989 0.0023136 7.80861e-005 1.12799e-005 -9.60013e-006 2.16971e-007 -3.18055e-015 7.71426e-008 -9.54166e-015 -0.0160328 0.00297683 0.000857603 8.03367e-006 1.52921e-006 -4.07916e-006 -3.18055e-015 7.71426e-008 -9.54166e-015 -0.0125786 0.00310669 0.00283146 -3.24707e-006 2.31273e-006 -4.29633e-006 -3.18055e-015 7.71426e-008 -9.54166e-015 7.35612e-007 -3.71885e-006 5.7487e-006 -4.56641e-006 -5.10835e-006 -2.27184e-006 16.1468 15.6077 2.99636 -30.6941 -50.2071 -30.8622 13.9312 2.67266 38.1057 48.3712 16.3336 -26.0131 3.64578e-007 -3.37971e-007 2.92919e-006 -4.05511e-006 -1.06291e-005 7.15546e-007 9.94044e-006 1.4108e-005 2.41692e-006 3.64578e-007 -3.37971e-007 2.92919e-006 0.0129392 0.00230365 -8.2263e-005 -1.84292e-006 6.2657e-006 -3.57667e-006 3.64578e-007 -3.37971e-007 2.92919e-006 0.0163435 0.00303244 -0.000875216 3.81002e-007 9.39448e-007 2.65752e-006 3.64578e-007 -3.37971e-007 2.92919e-006 0.0145848 0.00367126 -0.00326061 -4.05339e-006 7.93422e-006 -4.68318e-006 3.64578e-007 -3.37971e-007 2.92919e-006 -4.05511e-006 -1.06291e-005 7.15546e-007 9.94044e-006 1.4108e-005 2.41692e-006 -19.4896 -15.1097 -54.5857 -2.43751 53.8553 1.03432 -3.82263 13.9267 -0.157275 -2.23178e-005 1.10551e-006 -1.75928e-006 19.5117 -15.0857 54.6485 2.43458 53.8557 -1.03628 3.87091 13.9213 0.0848978 -3.97569e-015 3.18055e-015 -3.97569e-015 
0.000331364 3.5291 10.4526 -2.4947e-007 -82.0004 -2.04531e-007 -0.0176028 -3.27009 -0.153031 -0.0440787 -6.54014 -0.307826 -0.0440786 -6.54014 -0.307826 1.23039e-006 17.9982 -5.33098e-006 -0.0101511 9.11547 -0.232726 -15.5206 15.2508 -7.77888 38.2347 -44.2977 34.6159 -13.9186 2.6868 -35.2451 -44.6025 14.6426 25.0716 -3.18055e-015 3.18055e-015 -4.77083e-015 -3.18055e-015 3.18055e-015 -1.59028e-015 -9.54166e-015 0 -1.59028e-015 -3.18055e-015 3.18055e-015 -4.77083e-015 -0.0128171 0.00231419 8.53452e-005 0 0 -1.59028e-015 -3.18055e-015 3.18055e-015 -4.77083e-015 -0.0160716 0.00299021 0.000861535 -6.36111e-015 -1.59028e-015 4.77083e-015 -3.18055e-015 3.18055e-015 -4.77083e-015 -0.0125717 0.00311371 0.00282515 3.53113e-031 3.18055e-015 -6.36111e-015 -3.18055e-015 3.18055e-015 -4.77083e-015 -3.18055e-015 3.18055e-015 -1.59028e-015 -9.54166e-015 0 -1.59028e-015 14.6121 15.4686 2.5128 -33.3737 -46.1432 -28.6555 13.2477 2.54126 35.4381 44.9698 15.2848 -23.972 -8.82781e-031 6.36111e-015 7.95139e-015 1.5107e-007 2.45192e-006 3.14289e-006 6.36111e-015 1.59028e-015 -0 -8.82781e-031 6.36111e-015 7.95139e-015 0.0129522 0.00231967 -8.64126e-005 6.36111e-015 0 -0 -8.82781e-031 6.36111e-015 7.95139e-015 0.0163397 0.00304132 -0.000869135 0 9.54166e-015 -0 -8.82781e-031 6.36111e-015 7.95139e-015 0.0145613 0.00368211 -0.00326262 9.54166e-015 -3.18055e-015 1.59028e-015 -8.82781e-031 6.36111e-015 7.95139e-015 1.5107e-007 2.45192e-006 3.14289e-006 6.36111e-015 1.59028e-015 -0 -16.4761 -14.9244 -49.5886 -2.03178 50.0001 0.782367 -3.0734 12.8985 -1.02403 7.95139e-016 -3.18055e-015 -1.11319e-014 16.6434 -14.7714 50.023 2.02845 49.9962 -0.780216 3.3878 12.87 0.579614 4.05195e-006 -5.73825e-007 -2.62548e-006 
0.000561329 3.70521 10.4518 1.25522e-009 -82.0004 -1.15731e-008 -0.0167636 -3.43275 -0.153023 -0.0428468 -6.86554 -0.307887 -0.0428469 -6.86556 -0.307888 7.68797e-007 17.9983 -2.74531e-006 -0.0179291 9.20903 -0.418983 -15.282 16.1195 -7.06087 37.6754 -44.5796 34.2143 -14.171 2.73022 -35.2332 -44.6023 14.6433 25.0708 -4.86585e-006 5.10696e-007 1.01209e-006 -3.18055e-015 1.59028e-015 3.18055e-015 -3.18055e-015 0 -3.18055e-015 -4.86585e-006 5.10696e-007 1.01209e-006 -0.012774 0.00233596 8.60666e-005 -1.91771e-007 -1.19639e-005 -4.30663e-007 -4.86585e-006 5.10696e-007 1.01209e-006 -0.0160689 0.00300558 0.000863926 -4.07016e-006 2.46248e-006 -3.67346e-006 -4.86585e-006 5.10696e-007 1.01209e-006 -0.0125704 0.00313005 0.00283077 -2.76812e-006 1.83654e-006 9.51554e-007 -4.86585e-006 5.10696e-007 1.01209e-006 -3.18055e-015 1.59028e-015 3.18055e-015 -3.18055e-015 0 -3.18055e-015 14.3533 16.3349 1.78212 -32.7421 -46.3869 -28.1765 13.5072 2.58562 35.428 44.9698 15.2852 -23.9716 3.18055e-015 1.59028e-014 4.77083e-015 -6.36111e-015 1.90833e-014 3.18055e-015 -3.18055e-015 1.90833e-014 1.59028e-015 3.18055e-015 1.59028e-014 4.77083e-015 0.0129221 0.00231072 -9.08921e-005 -5.28469e-006 -4.18522e-006 9.57079e-006 3.18055e-015 1.59028e-014 4.77083e-015 0.0163017 0.00303067 -0.000882417 -3.18055e-015 3.18055e-015 3.18055e-015 3.18055e-015 1.59028e-014 4.77083e-015 0.0145842 0.00369468 -0.00327399 9.54166e-015 3.18055e-015 4.77083e-015 3.18055e-015 1.59028e-014 4.77083e-015 -6.36111e-015 1.90833e-014 3.18055e-015 -3.18055e-015 1.90833e-014 1.59028e-015 -16.0863 -14.9093 -48.617 -2.0313 49.9918 0.792468 -2.37169 12.884 -1.85721 7.47115e-006 -5.92894e-006 -3.23468e-006 16.3923 -14.6365 49.4038 2.02782 49.9843 -0.786568 2.94019 12.84 1.0591 7.95139e-016 -6.36111e-015 3.18055e-015 
0.000778586 3.8813 10.451 -6.87606e-008 -82.0004 -3.10249e-008 -0.0159234 -3.59575 -0.153074 -0.0416175 -7.19142 -0.308065 -0.0416177 -7.19144 -0.308065 4.08562e-007 17.9983 -1.87399e-006 -0.0254031 9.30262 -0.605307 -15.0534 16.9918 -6.3427 37.1097 -44.8593 33.8063 -14.4228 2.77371 -35.221 -44.6021 14.644 25.0701 1.61525e-007 -1.39491e-006 3.10499e-006 9.60759e-006 -1.14826e-005 1.77527e-006 6.36111e-015 0 -6.36111e-015 1.61525e-007 -1.39491e-006 3.10499e-006 -0.0128211 0.0023154 8.09037e-005 7.67912e-006 7.68862e-007 -1.9712e-006 1.61525e-007 -1.39491e-006 3.10499e-006 -0.0160258 0.00297668 0.000854285 -3.18055e-015 -1.59028e-015 -6.36111e-015 1.61525e-007 -1.39491e-006 3.10499e-006 -0.0125842 0.00311424 0.00282716 0 0 -7.95139e-015 1.61525e-007 -1.39491e-006 3.10499e-006 9.60759e-006 -1.14826e-005 1.77527e-006 6.36111e-015 0 -6.36111e-015 14.1047 17.2051 1.05148 -32.105 -46.627 -27.6916 13.7669 2.62995 35.4175 44.9696 15.2856 -23.9711 9.62379e-006 1.08705e-005 3.48074e-006 1.40371e-007 1.20554e-006 3.14583e-006 3.98625e-006 -6.57232e-006 5.18549e-006 9.62379e-006 1.08705e-005 3.48074e-006 0.0129525 0.0023062 -7.87231e-005 7.42038e-006 1.05574e-005 -3.83046e-006 9.62379e-006 1.08705e-005 3.48074e-006 0.0163621 0.003035 -0.000878265 2.06902e-006 1.07808e-005 2.54755e-006 9.62379e-006 1.08705e-005 3.48074e-006 0.0145747 0.00367067 -0.00325701 8.51911e-006 -9.74917e-006 6.34345e-007 9.62379e-006 1.08705e-005 3.48074e-006 1.40371e-007 1.20554e-006 3.14583e-006 3.98625e-006 -6.57232e-006 5.18549e-006 -15.6968 -14.8878 -47.6451 -2.03087 49.9835 0.802669 -1.66989 12.8594 -2.69079 -9.74879e-006 4.54269e-006 7.45753e-006 16.1429 -14.4987 48.7855 2.02707 49.9722 -0.793026 2.49288 12.8064 1.53845 2.7963e-006 1.06773e-006 3.34627e-006 
0.0009808 4.05738 10.4501 -3.88367e-007 -82.0004 -3.99708e-007 -0.015084 -3.75888 -0.153169 -0.0403943 -7.51773 -0.308331 -0.0403943 -7.51774 -0.308331 4.66072e-007 17.9983 -2.7851e-006 -0.03257 9.39628 -0.791698 -14.835 17.8675 -5.62421 36.5387 -45.1359 33.3926 -14.675 2.8171 -35.2083 -44.6019 14.6448 25.0693 2.56447e-006 1.57383e-005 -9.86069e-006 -8.68998e-006 -5.16558e-006 -1.24022e-005 3.18055e-015 -4.77083e-015 3.18055e-015 2.56447e-006 1.57383e-005 -9.86069e-006 -0.012823 0.00232412 7.4416e-005 -3.18055e-015 6.36111e-015 -3.18055e-015 2.56447e-006 1.57383e-005 -9.86069e-006 -0.0160635 0.00299634 0.000841129 1.32417e-031 4.77083e-015 -1.59028e-015 2.56447e-006 1.57383e-005 -9.86069e-006 -0.0126217 0.00314074 0.00282046 9.54166e-015 -1.59028e-015 6.36111e-015 2.56447e-006 1.57383e-005 -9.86069e-006 -8.68998e-006 -5.16558e-006 -1.24022e-005 3.18055e-015 -4.77083e-015 3.18055e-015 13.8664 18.079 0.320709 -31.4619 -46.8633 -27.2005 14.0267 2.67423 35.4067 44.9695 15.2861 -23.9707 6.67622e-006 1.02425e-006 1.18402e-006 1.35505e-007 1.44116e-006 3.14744e-006 1.04716e-005 4.03654e-007 1.64419e-006 6.67622e-006 1.02425e-006 1.18402e-006 0.0129518 0.00232071 -8.93162e-005 2.23801e-006 3.93067e-006 8.91505e-006 6.67622e-006 1.02425e-006 1.18402e-006 0.0163161 0.00302367 -0.000865047 6.67716e-006 9.46974e-006 1.18432e-006 6.67622e-006 1.02425e-006 1.18402e-006 0.0145638 0.00367346 -0.00325135 3.72935e-006 -5.57605e-007 -1.11369e-006 6.67622e-006 1.02425e-006 1.18402e-006 1.35505e-007 1.44116e-006 3.14744e-006 1.04716e-005 4.03654e-007 1.64419e-006 -15.3077 -14.8599 -46.6731 -2.03054 49.9752 0.81303 -0.968286 12.8248 -3.52444 -6.1094e-007 -3.78237e-006 -5.14962e-007 15.8953 -14.3588 48.1682 2.02665 49.9605 -0.799423 2.04585 12.769 2.01756 3.53113e-031 -6.36111e-015 3.18055e-015 
